<svg width="44" height="36" viewBox="0 0 44 36" fill="none" xmlns="http://www.w3.org/2000/svg">
<path fill-rule="evenodd" clip-rule="evenodd" d="M20.3372 7.67742C20.3372 8.248 20.7989 8.70968 21.3694 8.70968C21.94 8.70968 22.4017 8.24798 22.4017 7.67742V3.03226C22.4017 2.46168 21.94 2 21.3694 2C20.7989 2 20.3372 2.46169 20.3372 3.03226V7.67742ZM15.9743 14.0645C15.5549 14.0645 15.1779 14.3186 15.0186 14.7077L12.0771 21.9335C11.8009 22.6109 12.3009 23.3548 13.0328 23.3548H30.287C31.0188 23.3548 31.5188 22.6109 31.2426 21.9335L28.3011 14.7077C28.1418 14.3186 27.7648 14.0645 27.3454 14.0645H15.9743ZM5.9743 24.7097C5.55494 24.7097 5.17791 24.9637 5.01863 25.3528L2.07711 32.5786C1.8009 33.2581 2.3009 34 3.03278 34H20.287C21.0188 34 21.5188 33.2581 21.2426 32.5786L18.3011 25.3528C18.1418 24.9637 17.7648 24.7097 17.3454 24.7097H5.9743ZM26.0507 25.3528C26.2079 24.9637 26.587 24.7097 27.0063 24.7097H38.3751C38.7965 24.7097 39.1735 24.9637 39.3328 25.3528L42.2743 32.5786C42.5505 33.2581 42.0505 34 41.3166 34H24.0645C23.3306 34 22.8327 33.2581 23.1089 32.5786L26.0507 25.3528ZM30.0285 10.1492C29.6253 9.74599 29.6253 9.09275 30.0285 8.68955L33.3128 5.40526C33.716 5.00204 34.3692 5.00204 34.7724 5.40526C35.1757 5.80647 35.1757 6.46173 34.7724 6.86493L31.4882 10.1492C31.0849 10.5524 30.4317 10.5524 30.0285 10.1492ZM12.7077 8.68955C13.1109 9.09277 13.1109 9.74601 12.7077 10.1492C12.3065 10.5524 11.6513 10.5524 11.2481 10.1492L7.96377 6.86493C7.56054 6.4617 7.56054 5.80645 7.96377 5.40526C8.367 5.00204 9.02023 5.00204 9.42343 5.40526L12.7077 8.68955Z" fill="url(#paint0_radial_347_329)"/>
<g style="mix-blend-mode:soft-light">
<path fill-rule="evenodd" clip-rule="evenodd" d="M20.3372 7.67742C20.3372 8.248 20.7989 8.70968 21.3694 8.70968C21.94 8.70968 22.4017 8.24798 22.4017 7.67742V3.03226C22.4017 2.46168 21.94 2 21.3694 2C20.7989 2 20.3372 2.46169 20.3372 3.03226V7.67742ZM15.9743 14.0645C15.5549 14.0645 15.1779 14.3186 15.0186 14.7077L12.0771 21.9335C11.8009 22.6109 12.3009 23.3548 13.0328 23.3548H30.287C31.0188 23.3548 31.5188 22.6109 31.2426 21.9335L28.3011 14.7077C28.1418 14.3186 27.7648 14.0645 27.3454 14.0645H15.9743ZM5.9743 24.7097C5.55494 24.7097 5.17791 24.9637 5.01863 25.3528L2.07711 32.5786C1.8009 33.2581 2.3009 34 3.03278 34H20.287C21.0188 34 21.5188 33.2581 21.2426 32.5786L18.3011 25.3528C18.1418 24.9637 17.7648 24.7097 17.3454 24.7097H5.9743ZM26.0507 25.3528C26.2079 24.9637 26.587 24.7097 27.0063 24.7097H38.3751C38.7965 24.7097 39.1735 24.9637 39.3328 25.3528L42.2743 32.5786C42.5505 33.2581 42.0505 34 41.3166 34H24.0645C23.3306 34 22.8327 33.2581 23.1089 32.5786L26.0507 25.3528ZM30.0285 10.1492C29.6253 9.74599 29.6253 9.09275 30.0285 8.68955L33.3128 5.40526C33.716 5.00204 34.3692 5.00204 34.7724 5.40526C35.1757 5.80647 35.1757 6.46173 34.7724 6.86493L31.4882 10.1492C31.0849 10.5524 30.4317 10.5524 30.0285 10.1492ZM12.7077 8.68955C13.1109 9.09277 13.1109 9.74601 12.7077 10.1492C12.3065 10.5524 11.6513 10.5524 11.2481 10.1492L7.96377 6.86493C7.56054 6.4617 7.56054 5.80645 7.96377 5.40526C8.367 5.00204 9.02023 5.00204 9.42343 5.40526L12.7077 8.68955Z" fill="url(#paint1_radial_347_329)"/>
</g>
<defs>
<radialGradient id="paint0_radial_347_329" cx="0" cy="0" r="1" gradientUnits="userSpaceOnUse" gradientTransform="translate(22.1757 18) rotate(90) scale(16 20.1757)">
<stop stop-color="#FFCC6A"/>
<stop offset="0.525" stop-color="#FEDFA3"/>
</radialGradient>
<radialGradient id="paint1_radial_347_329" cx="0" cy="0" r="1" gradientUnits="userSpaceOnUse" gradientTransform="translate(22.1757 18) rotate(90) scale(16 20.1757)">
<stop stop-color="#FFCC6A"/>
<stop offset="0.525" stop-color="#FEDFA3"/>
</radialGradient>
</defs>
</svg>
