<svg width="69" height="24" viewBox="0 0 69 24" fill="none" xmlns="http://www.w3.org/2000/svg">
<path fill-rule="evenodd" clip-rule="evenodd" d="M20.7407 11.8519C20.7407 16.7611 16.7611 20.7407 11.8519 20.7407C6.94265 20.7407 2.96296 16.7611 2.96296 11.8519C2.96296 6.94265 6.94265 2.96296 11.8519 2.96296C16.7611 2.96296 20.7407 6.94265 20.7407 11.8519ZM23.7037 11.8519C23.7037 18.3974 18.3974 23.7037 11.8519 23.7037C5.30625 23.7037 0 18.3974 0 11.8519C0 5.30625 5.30625 0 11.8519 0C18.3974 0 23.7037 5.30625 23.7037 11.8519ZM15.3086 11.8519C15.3086 13.761 13.761 15.3086 11.8519 15.3086C9.94272 15.3086 8.39506 13.761 8.39506 11.8519C8.39506 9.94272 9.94272 8.39506 11.8519 8.39506C13.761 8.39506 15.3086 9.94272 15.3086 11.8519ZM18.2716 11.8519C18.2716 15.3974 15.3974 18.2716 11.8519 18.2716C8.30632 18.2716 5.4321 15.3974 5.4321 11.8519C5.4321 8.30632 8.30632 5.4321 11.8519 5.4321C15.3974 5.4321 18.2716 8.30632 18.2716 11.8519Z" fill="url(#paint0_radial_322_655)"/>
<path d="M29.155 12.2681C29.155 15.3022 31.2788 16.7434 33.3458 16.7434C35.4317 16.7434 37.5556 15.3022 37.5556 12.2681C37.5556 9.23407 35.4317 7.79289 33.3458 7.79289C31.2788 7.79289 29.155 9.23407 29.155 12.2681ZM26.4433 12.2871C26.4433 7.94459 29.7049 5.27082 33.3458 5.27082C37.0057 5.27082 40.2673 7.94459 40.2673 12.2871C40.2673 16.6107 37.0057 19.2844 33.3458 19.2844C29.7049 19.2844 26.4433 16.6107 26.4433 12.2871ZM49.1731 19L46.5372 13.8231H45.1719V19H42.536V5.55526H47.7888C50.4057 5.55526 52.0744 7.35674 52.0744 9.68919C52.0744 11.5665 50.9745 12.9887 49.211 13.5007L52.0934 19H49.1731ZM45.1719 11.5665H47.2957C48.6231 11.5665 49.4006 10.808 49.4006 9.70815C49.4006 8.57037 48.6231 7.83081 47.2957 7.83081H45.1719V11.5665ZM56.2105 12.2681C56.2105 15.3022 58.3344 16.7434 60.4014 16.7434C62.4873 16.7434 64.6111 15.3022 64.6111 12.2681C64.6111 9.23407 62.4873 7.79289 60.4014 7.79289C58.3344 7.79289 56.2105 9.23407 56.2105 12.2681ZM53.4988 12.2871C53.4988 7.94459 56.7605 5.27082 60.4014 5.27082C64.0612 5.27082 67.3228 7.94459 67.3228 12.2871C67.3228 16.6107 64.0612 19.2844 60.4014 19.2844C56.7605 19.2844 53.4988 16.6107 53.4988 12.2871Z" fill="white"/>
<defs>
<radialGradient id="paint0_radial_322_655" cx="0" cy="0" r="1" gradientUnits="userSpaceOnUse" gradientTransform="translate(5 1) rotate(51.6486) scale(58.0194)">
<stop stop-color="#FFBB38"/>
<stop offset="0.698569" stop-color="#FFECC7"/>
</radialGradient>
</defs>
</svg>
